PathFileType	4	(X/Y/Z)	../Python\walking\Walking17\task.trc
DataRate	CameraRate	NumFrames	NumMarkers	Units	OrigDataRate	OrigDataStartFrame	OrigNumFrames
200.000000	200.000000	4	30	mm	200.000000	218	350
Frame#	Time	CLAV			STRN			RASI			LASI			PE01			RTH1			RTH2			RTH3			RTB3			RHEE			RD5M			RTOE			LTH2			LTH3			LTB2			LTB3			LHEE			LTOE			LD5M			RBAK			RTB2			C7			RTB1			LPSI			PE03			PE02			RPSI			T10			LTH1			LTB1			
		X1	Y1	Z1	X2	Y2	Z2	X3	Y3	Z3	X4	Y4	Z4	X5	Y5	Z5	X6	Y6	Z6	X7	Y7	Z7	X8	Y8	Z8	X9	Y9	Z9	X10	Y10	Z10	X11	Y11	Z11	X12	Y12	Z12	X13	Y13	Z13	X14	Y14	Z14	X15	Y15	Z15	X16	Y16	Z16	X17	Y17	Z17	X18	Y18	Z18	X19	Y19	Z19	X20	Y20	Z20	X21	Y21	Z21	X22	Y22	Z22	X23	Y23	Z23	X24	Y24	Z24	X25	Y25	Z25	X26	Y26	Z26	X27	Y27	Z27	X28	Y28	Z28	X29	Y29	Z29	X30	Y30	Z30	

219	1.09	75.14451599121097	1220.792846679688	159.6223449707032	136.7679138183594	1037.705322265625	158.0380401611329	107.053939819336	842.4760131835942	268.6686096191407	104.8704376220704	840.8032226562505	38.77621459960939	-85.26512145996097	915.1914672851567	176.9705963134766	126.9223785400391	555.6440429687502	302.0588378906251	178.2380828857422	497.747985839844	284.1622924804689	177.5646514892579	556.4111328125002	302.1491088867189	314.1253967285157	236.7886810302736	268.6653747558595	323.7416992187501	25.87217712402345	198.9261169433595	461.5028076171877	75.07707214355472	273.3629455566407	485.6767883300784	104.4000396728516	229.1952209472657	-68.80866241455081	544.8479614257815	28.92511558532716	10.58216285705567	558.2130126953127	23.95453643798829	-213.9540252685548	219.8945465087892	59.94951248168948	-166.1448364257813	232.9748840332032	62.10058975219729	-305.2667846679689	56.33129501342776	124.7475357055665	-114.682601928711	28.76782226562501	131.2483673095704	-157.4536590576172	15.25756740570069	79.39754486083987	-108.7071380615235	1212.72265625	239.7761230468751	270.2318115234376	256.3608703613282	281.4706115722657	-46.31007385253908	1318.334838867188	151.6983337402344	293.2753295898439	311.8220825195314	274.8719482421876	-95.3615417480469	882.5581665039067	132.2170867919922	-107.4984893798829	858.0363769531255	148.827377319336	-104.2523498535157	855.497680664063	199.3897857666017	-93.37630462646487	875.4284667968755	216.7595672607423	-76.23062896728518	1018.285949707032	153.9118194580079	-27.69170570373537	589.9234619140627	13.92194938659669	-181.4010009765626	290.9669189453126	46.60293197631837	
220	1.095	82.49777984619143	1219.6796875	159.9822387695313	144.2159576416016	1036.646728515625	158.2726440429688	114.5988998413087	841.6663208007817	268.7326049804689	111.9360809326172	839.4971313476567	38.7230682373047	-77.8752365112305	914.3023071289067	177.463119506836	135.2563476562501	555.3333740234377	301.924285888672	186.8643646240235	497.6773681640627	284.0665893554689	185.9075317382813	556.3522949218752	301.8149719238282	320.878875732422	235.5959625244142	267.9190063476564	327.7733764648439	24.78189659118654	198.4097595214845	466.5184631347659	72.44052886962893	271.451141357422	490.602233886719	101.5907745361329	226.9895782470704	-63.37361145019534	544.3272705078127	29.16282463073732	16.1288013458252	557.256530761719	23.98083305358887	-211.5908050537111	221.0343627929689	59.99465560913089	-163.6367492675782	233.571258544922	62.17845535278323	-304.8183898925782	58.41342926025393	124.5242767333985	-114.5189895629883	28.79061508178712	131.1747131347657	-157.4310607910157	15.29968738555909	79.36970520019534	-101.5151901245118	1211.58154296875	239.9408416748048	277.270233154297	255.5774230957032	281.0618591308595	-39.06467437744142	1317.309326171875	152.0329742431641	300.8110961914064	310.7737121582032	274.254364013672	-88.11186218261722	881.5854492187505	132.804672241211	-100.2475509643555	857.061645507813	149.5960693359376	-96.76525115966803	854.6823730468755	200.1506958007814	-85.96520996093753	874.5539550781255	217.2696533203126	-68.93885040283206	1017.232543945313	154.0923156738282	-22.08111190795899	589.2088012695315	14.10558605194093	-178.2520446777344	291.6524047851564	46.7053909301758	
221	1.1	89.888542175293	1218.670654296875	160.3441314697266	151.7231903076172	1035.701416015625	158.5219726562501	122.1884841918946	840.9666137695317	268.8336791992189	119.0864715576172	838.2331542968755	38.72306442260744	-70.44534301757815	913.5214843750005	177.9069213867188	143.7745513916016	555.1839599609377	301.8573608398439	195.6136474609376	497.6996765136721	284.0428466796876	194.4421844482423	556.4251708984377	301.4663085937501	327.3701171875001	234.335906982422	267.1465759277345	331.1646118164064	23.72237205505372	197.9313354492189	470.9840393066409	69.45475006103518	269.4219360351564	495.0097351074221	98.38919067382818	224.6164550781251	-57.82410049438479	543.8305664062502	29.42588615417482	21.78429985046387	556.3383789062502	24.05746841430665	-209.1231842041017	222.2697906494142	60.04587554931643	-161.0298767089844	234.2474365234376	62.26534271240237	-304.3081665039064	60.65624618530276	124.2761764526368	-114.3240432739258	28.82179832458498	131.0893859863282	-157.412094116211	15.32449817657471	79.34587097167972	-94.26885986328128	1210.526123046875	240.1358795166017	284.0753479003907	254.7871856689454	280.6287841796876	-31.7884922027588	1316.3681640625	152.3775939941407	308.2022094726564	309.6919250488282	273.6182250976564	-80.78971862792972	880.7055053710942	133.3524627685547	-92.91965484619143	856.1765747070317	150.3304901123047	-89.22027587890628	853.978149414063	200.8770599365236	-78.49632263183597	873.803588867188	217.7602844238282	-61.58334732055667	1016.261596679688	154.2711486816407	-16.3527011871338	588.5252685546877	14.32022094726563	-174.9832916259766	292.4102478027345	46.80830764770509	
222	1.105	97.31520843505865	1217.771118164063	160.7066345214844	159.2880401611329	1034.874145507813	158.7849731445313	129.8217163085938	840.3817749023442	268.9740295410157	126.3198471069337	837.0169067382817	38.77989196777345	-62.97874450683597	912.8519897460942	178.3010864257813	152.4643096923829	555.1929321289065	301.8652343750001	204.4627380371095	497.8074645996096	284.0840759277345	203.1535797119142	556.6216430664065	301.1029663085939	333.6219482421876	233.0376281738282	266.3602905273439	333.9893188476564	22.741849899292	197.5087127685548	474.955261230469	66.16084289550784	267.3192138671876	498.9645690917971	94.83669281005862	222.1269531250001	-52.15351867675784	543.3609619140627	29.71607971191408	27.55246162414552	555.4639282226565	24.18346023559572	-206.5375213623048	223.6071624755861	60.1032524108887	-158.309310913086	235.0068206787111	62.35783004760745	-303.7201538085939	63.07403564453128	124.0072174072266	-114.0991668701172	28.85925865173341	130.9901275634766	-157.4039916992188	15.32908630371094	79.32868194580081	-86.96829223632815	1209.561401367188	240.3619384765626	290.6658020019532	254.0084228515626	280.1775207519532	-24.48267173767091	1315.515869140625	152.7318267822266	315.4515075683595	308.5992736816407	272.9700317382814	-73.39672851562503	879.9216918945317	133.859115600586	-85.51593780517581	855.3842773437505	151.0284729003907	-81.62020111083987	853.3875122070317	201.5668334960939	-70.97110748291018	873.1809082031255	218.2318878173829	-54.1661186218262	1015.378173828125	154.4497833251954	-10.50039100646973	587.876892089844	14.56511592864991	-171.5797119140626	293.2466125488282	46.91151428222658	
